<?xml version="1.0" encoding="utf-8"?>
<!-- Generator: Adobe Illustrator 15.1.0, SVG Export Plug-In . SVG Version: 6.00 Build 0)  -->
<!DOCTYPE svg PUBLIC "-//W3C//DTD SVG 1.1//EN" "http://www.w3.org/Graphics/SVG/1.1/DTD/svg11.dtd">
<svg version="1.1" id="Layer_1" xmlns="http://www.w3.org/2000/svg" xmlns:xlink="http://www.w3.org/1999/xlink" x="0px" y="0px"
	 width="90px" height="36px" viewBox="0 0 90 36" enable-background="new 0 0 90 36" xml:space="preserve">
<g>
	<image overflow="visible" width="825" height="292" xlink:href="9DDBCFD2.jpg"  transform="matrix(0.1079 0 0 0.1079 1 1)">
	</image>
	<g>
		<defs>
			<path id="SVGID_1_" d="M18.054,5.37c-0.368,0.473-0.866,0.709-1.493,0.709c-0.577,0-1.005-0.169-1.284-0.508
				c-0.278-0.338-0.418-0.781-0.418-1.329c0-0.627,0.197-1.157,0.59-1.59s0.894-0.649,1.5-0.649c0.518,0,0.923,0.154,1.217,0.463
				c0.293,0.309,0.44,0.716,0.44,1.225C18.606,4.337,18.422,4.897,18.054,5.37L18.054,5.37z M17.188,10.066
				c0,0.527-0.239,1.841-0.716,3.942l-1.015,4.42c-0.598,2.519-1.115,4.546-1.553,6.084s-0.901,2.732-1.389,3.584
				s-1.174,1.725-2.06,2.62c-0.578,0.598-1.058,0.98-1.441,1.15c-0.384,0.169-0.804,0.253-1.262,0.253c-0.348,0-0.682-0.055-1-0.164
				c0.169-0.597,0.273-1.418,0.313-2.464l0.418-0.089c0.338,0.478,0.617,0.769,0.836,0.873c0.219,0.104,0.423,0.157,0.612,0.157
				c0.179,0,0.338-0.056,0.478-0.164c0.219-0.18,0.403-0.508,0.552-0.986c0.259-0.846,0.796-3.27,1.613-7.271l1.299-6.646
				c0.309-1.612,0.463-2.622,0.463-3.03c0-0.319-0.109-0.479-0.329-0.479c-0.378,0-1.259,0.483-2.643,1.448l-0.194-0.015
				l-0.313-0.522l0.03-0.194c2.11-1.603,3.591-2.628,4.442-3.077c0.852-0.448,1.541-0.672,2.068-0.672S17.188,9.24,17.188,10.066
				L17.188,10.066z M31.38,20.771c0,0.369,0.145,0.553,0.433,0.553c0.169,0,0.348-0.058,0.538-0.172
				c0.188-0.114,0.422-0.275,0.701-0.485c0.309-0.219,0.567-0.402,0.777-0.553h0.179l0.329,0.583l-0.045,0.193
				c-2.041,1.533-3.335,2.439-3.882,2.718c-0.548,0.279-1.026,0.419-1.434,0.419c-0.309,0-0.548-0.112-0.717-0.336
				c-0.169-0.225-0.254-0.53-0.254-0.919c0-0.597,0.254-1.871,0.762-3.822l0.582-2.27c-0.955,1.86-2.252,3.568-3.889,5.121
				c-1.638,1.553-2.955,2.329-3.95,2.329c-0.428,0-0.776-0.148-1.045-0.447c-0.269-0.299-0.403-0.742-0.403-1.329
				c0-0.388,0.042-0.801,0.127-1.239c0.084-0.438,0.306-1.329,0.665-2.673c0.856-3.205,1.284-5.246,1.284-6.122
				c0-0.418-0.145-0.627-0.433-0.627c-0.12,0-0.262,0.035-0.426,0.104c-0.164,0.07-0.704,0.394-1.62,0.971l-0.209-0.03l-0.239-0.568
				l0.03-0.209c1.403-1.025,2.568-1.804,3.494-2.337c0.926-0.532,1.667-0.799,2.225-0.799c0.647,0,0.971,0.394,0.971,1.18
				c0,0.378-0.058,0.851-0.171,1.418c-0.115,0.568-0.336,1.479-0.665,2.733l-1.255,5.017c-0.149,0.697-0.224,1.19-0.224,1.479
				c0,0.418,0.174,0.627,0.522,0.627c0.219,0,0.542-0.142,0.971-0.426c0.428-0.283,1.065-0.968,1.911-2.053
				c0.657-0.836,1.259-1.814,1.807-2.934c0.547-1.12,1.02-2.441,1.418-3.964c0.209-0.836,0.344-1.622,0.403-2.359
				c1.025-0.06,2.11-0.258,3.255-0.597l0.254,0.269c-0.607,1.951-1.222,4.176-1.845,6.674C31.691,18.388,31.38,20.016,31.38,20.771
				L31.38,20.771z M48.082,20.771c0,0.369,0.144,0.553,0.433,0.553c0.17,0,0.349-0.058,0.537-0.172
				c0.189-0.114,0.424-0.275,0.702-0.485c0.309-0.219,0.567-0.402,0.776-0.553h0.18l0.328,0.583l-0.045,0.193
				c-2.04,1.533-3.334,2.439-3.882,2.718c-0.548,0.279-1.025,0.419-1.434,0.419c-0.309,0-0.547-0.112-0.717-0.336
				c-0.169-0.225-0.254-0.53-0.254-0.919c0-0.597,0.254-1.871,0.762-3.822l0.582-2.27c-0.955,1.86-2.252,3.568-3.89,5.121
				c-1.637,1.553-2.954,2.329-3.949,2.329c-0.428,0-0.777-0.148-1.045-0.447c-0.269-0.299-0.403-0.742-0.403-1.329
				c0-0.388,0.042-0.801,0.127-1.239c0.085-0.438,0.306-1.329,0.664-2.673c0.856-3.205,1.285-5.246,1.285-6.122
				c0-0.418-0.145-0.627-0.434-0.627c-0.119,0-0.261,0.035-0.425,0.104c-0.164,0.07-0.704,0.394-1.62,0.971l-0.209-0.03
				l-0.239-0.568l0.029-0.209c1.404-1.025,2.569-1.804,3.494-2.337c0.926-0.532,1.667-0.799,2.225-0.799
				c0.647,0,0.971,0.394,0.971,1.18c0,0.378-0.058,0.851-0.172,1.418c-0.114,0.568-0.335,1.479-0.665,2.733l-1.254,5.017
				c-0.149,0.697-0.224,1.19-0.224,1.479c0,0.418,0.174,0.627,0.522,0.627c0.219,0,0.543-0.142,0.971-0.426
				c0.428-0.283,1.065-0.968,1.911-2.053c0.657-0.836,1.259-1.814,1.807-2.934c0.548-1.12,1.021-2.441,1.419-3.964
				c0.209-0.836,0.344-1.622,0.403-2.359c1.024-0.06,2.109-0.258,3.255-0.597l0.254,0.269c-0.607,1.951-1.223,4.176-1.844,6.674
				C48.393,18.388,48.082,20.016,48.082,20.771L48.082,20.771z M64.783,20.771c0,0.369,0.144,0.553,0.433,0.553
				c0.17,0,0.349-0.058,0.538-0.172c0.188-0.114,0.423-0.275,0.701-0.485c0.309-0.219,0.567-0.402,0.776-0.553h0.18l0.328,0.583
				l-0.045,0.193c-2.04,1.533-3.334,2.439-3.882,2.718c-0.548,0.279-1.025,0.419-1.434,0.419c-0.309,0-0.548-0.112-0.717-0.336
				c-0.169-0.225-0.253-0.53-0.253-0.919c0-0.597,0.253-1.871,0.761-3.822l0.582-2.27c-0.955,1.86-2.252,3.568-3.889,5.121
				c-1.639,1.553-2.955,2.329-3.95,2.329c-0.428,0-0.776-0.148-1.045-0.447s-0.403-0.742-0.403-1.329
				c0-0.388,0.042-0.801,0.127-1.239c0.084-0.438,0.306-1.329,0.665-2.673c0.855-3.205,1.283-5.246,1.283-6.122
				c0-0.418-0.145-0.627-0.433-0.627c-0.12,0-0.261,0.035-0.425,0.104c-0.165,0.07-0.705,0.394-1.621,0.971l-0.209-0.03
				l-0.238-0.568l0.029-0.209c1.404-1.025,2.568-1.804,3.494-2.337c0.926-0.532,1.667-0.799,2.225-0.799
				c0.647,0,0.971,0.394,0.971,1.18c0,0.378-0.058,0.851-0.172,1.418c-0.114,0.568-0.336,1.479-0.664,2.733l-1.255,5.017
				c-0.148,0.697-0.224,1.19-0.224,1.479c0,0.418,0.174,0.627,0.522,0.627c0.219,0,0.543-0.142,0.971-0.426
				c0.428-0.283,1.064-0.968,1.911-2.053c0.657-0.836,1.26-1.814,1.807-2.934c0.548-1.12,1.021-2.441,1.419-3.964
				c0.209-0.836,0.343-1.622,0.403-2.359c1.025-0.06,2.11-0.258,3.255-0.597l0.254,0.269c-0.607,1.951-1.223,4.176-1.844,6.674
				C65.094,18.388,64.783,20.016,64.783,20.771L64.783,20.771z M83.097,12.485l-0.642,0.12l-0.284-0.852
				c-0.209-0.1-0.402-0.149-0.582-0.149c-0.537,0-1.075,0.241-1.612,0.724c-0.538,0.483-1.334,1.491-2.39,3.024
				c0.309,2.031,0.577,3.447,0.807,4.248c0.229,0.802,0.463,1.326,0.701,1.575c0.239,0.249,0.483,0.373,0.731,0.373
				c0.448,0,1.21-0.463,2.285-1.389l0.18,0.016l0.343,0.552l-0.029,0.18c-1.742,1.522-2.88,2.432-3.412,2.725
				c-0.532,0.294-0.998,0.44-1.396,0.44c-0.458,0-0.871-0.179-1.239-0.537s-0.635-0.846-0.799-1.464
				c-0.164-0.616-0.381-1.801-0.649-3.553c-1.165,1.691-1.993,2.839-2.486,3.441c-0.492,0.603-0.896,1.048-1.209,1.336
				c-0.313,0.289-0.617,0.49-0.911,0.605c-0.293,0.114-0.6,0.171-0.918,0.171c-0.199,0-0.356-0.018-0.471-0.052
				c-0.114-0.035-0.391-0.152-0.828-0.352c0.159-0.438,0.288-0.995,0.388-1.672s0.149-1.072,0.149-1.188
				c0-0.113-0.005-0.227-0.015-0.336l0.746-0.074l0.18,0.956c0.298,0.119,0.562,0.179,0.791,0.179c0.349,0,0.727-0.127,1.135-0.381
				s0.985-0.868,1.732-1.844c0.746-0.976,1.229-1.637,1.448-1.986c-0.309-1.852-0.545-3.152-0.709-3.904
				c-0.165-0.752-0.403-1.244-0.717-1.478c-0.314-0.234-0.62-0.352-0.918-0.352c-0.379,0-0.768,0.13-1.165,0.388
				c-0.398,0.259-0.697,0.573-0.896,0.941l-0.18,0.06l-0.493-0.284l-0.029-0.164c0.995-1.573,1.572-2.593,1.731-3.062
				c0.797-0.408,1.548-0.612,2.255-0.612c0.945,0,1.662,0.256,2.15,0.769c0.487,0.513,0.816,1.081,0.985,1.702
				c0.169,0.622,0.334,1.556,0.493,2.8c1.433-2.1,2.406-3.409,2.919-3.927c0.512-0.518,0.968-0.866,1.366-1.045
				c0.397-0.179,0.776-0.269,1.135-0.269c0.288,0,0.632,0.08,1.03,0.239C83.45,9.972,83.217,11.091,83.097,12.485L83.097,12.485z"/>
		</defs>
		<clipPath id="SVGID_2_">
			<use xlink:href="#SVGID_1_"  overflow="visible"/>
		</clipPath>
		<g clip-path="url(#SVGID_2_)">
			<image overflow="visible" width="825" height="292" xlink:href="9DDBCFD6.jpg"  transform="matrix(0.1079 0 0 0.1079 1 1)">
			</image>
		</g>
	</g>
</g>
</svg>
